HIERARCHY
ROOT hips
{
	OFFSET 0.000000 29.995300 -0.000000
	CHANNELS 6 Xposition Yposition Zposition Zrotation Yrotation Xrotation 
	JOINT Chest
	{
		OFFSET 0.000000 10.123600 0.695200
		CHANNELS 3 Zrotation Yrotation Xrotation
		JOINT Chest2
		{
			OFFSET 0.000000 15.405600 0.012300
			CHANNELS 3 Zrotation Yrotation Xrotation
			JOINT Chest3
			{
				OFFSET 0.000000 11.482400 -0.009100
				CHANNELS 3 Zrotation Yrotation Xrotation
				JOINT Neck
				{
					OFFSET 0.000000 25.678300 -0.023300
					CHANNELS 3 Zrotation Yrotation Xrotation
					JOINT Head
					{
						OFFSET 0.000000 13.458800 0.864200
						CHANNELS 3 Zrotation Yrotation Xrotation
						JOINT Head_End
						{
							OFFSET 0.000000 11.713200 -0.000000
							CHANNELS 3 Zrotation Yrotation Xrotation
							End Site
							{
								OFFSET 0.005000 0.000000 0.000000
							}
						}
					}
				}
				JOINT LeftCollar
				{
					OFFSET 12.227600 21.516500 -0.711700
					CHANNELS 3 Zrotation Yrotation Xrotation
					JOINT LeftShoulder
					{
						OFFSET 10.451400 0.021300 -0.002200
						CHANNELS 3 Zrotation Yrotation Xrotation
						JOINT LeftElbow
						{
							OFFSET 26.123400 0.000000 0.000000
							CHANNELS 3 Zrotation Yrotation Xrotation
							JOINT LeftWrist
							{
								OFFSET 25.245600 0.035600 0.002400
								CHANNELS 3 Zrotation Yrotation Xrotation
								JOINT Middle_00_L
								{
									OFFSET 11.653500 0.000000 0.000000
									CHANNELS 3 Zrotation Yrotation Xrotation
									JOINT Middle_01_L
									{
										OFFSET 4.384300 0.000000 0.000000
										CHANNELS 3 Zrotation Yrotation Xrotation
										JOINT Middle_02_L
										{
											OFFSET 3.470400 -0.000300 0.000000
											CHANNELS 3 Zrotation Yrotation Xrotation
											JOINT Middle_03_L
											{
												OFFSET 2.422200 0.000300 0.000000
												CHANNELS 3 Zrotation Yrotation Xrotation
												End Site
												{
													OFFSET 0.005000 0.000000 0.000000
												}
											}
										}
									}
								}
								JOINT Index_00_L
								{
									OFFSET 11.320700 0.000000 3.214800
									CHANNELS 3 Zrotation Yrotation Xrotation
									JOINT Index_01_L
									{
										OFFSET 3.752500 0.000000 0.000000
										CHANNELS 3 Zrotation Yrotation Xrotation
										JOINT Index_02_L
										{
											OFFSET 2.704900 0.000000 0.000300
											CHANNELS 3 Zrotation Yrotation Xrotation
											JOINT Index_03_L
											{
												OFFSET 2.288400 0.000000 -0.000300
												CHANNELS 3 Zrotation Yrotation Xrotation
												End Site
												{
													OFFSET 0.005000 0.000000 0.000000
												}
											}
										}
									}
								}
								JOINT Thumb_00_L
								{
									OFFSET 2.189000 0.000000 5.112700
									CHANNELS 3 Zrotation Yrotation Xrotation
									JOINT Thumb_01_L
									{
										OFFSET 5.672300 0.000000 0.000000
										CHANNELS 3 Zrotation Yrotation Xrotation
										JOINT Thumb_02_L
										{
											OFFSET 3.353600 0.000000 0.000400
											CHANNELS 3 Zrotation Yrotation Xrotation
											JOINT Thumb_03_L
											{
												OFFSET 3.066600 0.000000 -0.000400
												CHANNELS 3 Zrotation Yrotation Xrotation
												End Site
												{
													OFFSET 0.005000 0.000000 0.000000
												}
											}
										}
									}
								}
								JOINT Ring_00_L
								{
									OFFSET 11.421100 0.000000 -3.087400
									CHANNELS 3 Zrotation Yrotation Xrotation
									JOINT Ring_01_L
									{
										OFFSET 4.107700 0.000000 0.000000
										CHANNELS 3 Zrotation Yrotation Xrotation
										JOINT Ring_02_L
										{
											OFFSET 2.971800 0.000000 0.000500
											CHANNELS 3 Zrotation Yrotation Xrotation
											JOINT Ring_03_L
											{
												OFFSET 2.159200 0.000000 -0.000500
												CHANNELS 3 Zrotation Yrotation Xrotation
												End Site
												{
													OFFSET 0.005000 0.000000 0.000000
												}
											}
										}
									}
								}
								JOINT Little_00_L
								{
									OFFSET 10.838200 0.000000 -5.836000
									CHANNELS 3 Zrotation Yrotation Xrotation
									JOINT Little_01_L
									{
										OFFSET 3.568800 0.000000 0.000000
										CHANNELS 3 Zrotation Yrotation Xrotation
										JOINT Little_02_L
										{
											OFFSET 2.336100 0.000000 0.000200
											CHANNELS 3 Zrotation Yrotation Xrotation
											JOINT Little_03_L
											{
												OFFSET 1.912900 0.000000 -0.000200
												CHANNELS 3 Zrotation Yrotation Xrotation
												End Site
												{
													OFFSET 0.005000 0.000000 0.000000
												}
											}
										}
									}
								}
							}
						}
					}
				}
				JOINT RightCollar
				{
					OFFSET -12.227600 21.516500 -0.711700
					CHANNELS 3 Zrotation Yrotation Xrotation
					JOINT RightShoulder
					{
						OFFSET -10.451300 0.021300 -0.002200
						CHANNELS 3 Zrotation Yrotation Xrotation
						JOINT RightElbow
						{
							OFFSET -26.123400 0.000000 0.000000
							CHANNELS 3 Zrotation Yrotation Xrotation
							JOINT RightWrist
							{
								OFFSET -25.245800 0.035400 0.002000
								CHANNELS 3 Zrotation Yrotation Xrotation
								JOINT Middle_00_R
								{
									OFFSET -11.654000 0.000000 0.000000
									CHANNELS 3 Zrotation Yrotation Xrotation
									JOINT Middle_01_R
									{
										OFFSET -4.408600 0.000000 0.000000
										CHANNELS 3 Zrotation Yrotation Xrotation
										JOINT Middle_02_R
										{
											OFFSET -3.470400 0.000000 0.000000
											CHANNELS 3 Zrotation Yrotation Xrotation
											JOINT Middle_03_R
											{
												OFFSET -2.422200 0.000000 0.000000
												CHANNELS 3 Zrotation Yrotation Xrotation
												End Site
												{
													OFFSET 0.005000 0.000000 0.000000
												}
											}
										}
									}
								}
								JOINT Ring_00_R
								{
									OFFSET -11.459300 0.000000 -3.067300
									CHANNELS 3 Zrotation Yrotation Xrotation
									JOINT Ring_01_R
									{
										OFFSET -4.107700 0.000000 0.000000
										CHANNELS 3 Zrotation Yrotation Xrotation
										JOINT Ring_02_R
										{
											OFFSET -2.971800 0.000000 0.000000
											CHANNELS 3 Zrotation Yrotation Xrotation
											JOINT Ring_03_R
											{
												OFFSET -2.159200 0.000000 0.000000
												CHANNELS 3 Zrotation Yrotation Xrotation
												End Site
												{
													OFFSET 0.005000 0.000000 0.000000
												}
											}
										}
									}
								}
								JOINT Little_00_R
								{
									OFFSET -10.887000 0.000000 -5.818300
									CHANNELS 3 Zrotation Yrotation Xrotation
									JOINT Little_01_R
									{
										OFFSET -3.568800 0.000000 0.000000
										CHANNELS 3 Zrotation Yrotation Xrotation
										JOINT Little_02_R
										{
											OFFSET -2.336100 0.000000 0.000000
											CHANNELS 3 Zrotation Yrotation Xrotation
											JOINT Little_03_R
											{
												OFFSET -1.912900 0.000000 0.000000
												CHANNELS 3 Zrotation Yrotation Xrotation
												End Site
												{
													OFFSET 0.005000 0.000000 0.000000
												}
											}
										}
									}
								}
								JOINT Index_00_R
								{
									OFFSET -11.333200 0.000000 3.234400
									CHANNELS 3 Zrotation Yrotation Xrotation
									JOINT Index_01_R
									{
										OFFSET -3.752500 0.000000 0.000000
										CHANNELS 3 Zrotation Yrotation Xrotation
										JOINT Index_02_R
										{
											OFFSET -2.704900 0.000000 0.000000
											CHANNELS 3 Zrotation Yrotation Xrotation
											JOINT Index_03_R
											{
												OFFSET -2.288400 0.000000 0.000000
												CHANNELS 3 Zrotation Yrotation Xrotation
												End Site
												{
													OFFSET 0.005000 0.000000 0.000000
												}
											}
										}
									}
								}
								JOINT Thumb_00_R
								{
									OFFSET -2.193600 -0.231700 5.095700
									CHANNELS 3 Zrotation Yrotation Xrotation
									JOINT Thumb_01_R
									{
										OFFSET -5.672200 0.231700 0.000000
										CHANNELS 3 Zrotation Yrotation Xrotation
										JOINT Thumb_02_R
										{
											OFFSET -3.353600 0.000000 0.000000
											CHANNELS 3 Zrotation Yrotation Xrotation
											JOINT Thumb_03_R
											{
												OFFSET -3.066500 0.000000 0.000000
												CHANNELS 3 Zrotation Yrotation Xrotation
												End Site
												{
													OFFSET 0.005000 0.000000 0.000000
												}
											}
										}
									}
								}
							}
						}
					}
				}
			}
		}
	}
	JOINT LeftHip
	{
		OFFSET 6.356900 0.000000 0.000000
		CHANNELS 3 Zrotation Yrotation Xrotation
		JOINT LeftKnee
		{
			OFFSET -0.000100 -37.930500 0.000000
			CHANNELS 3 Zrotation Yrotation Xrotation
			JOINT LeftAnkle
			{
				OFFSET -0.000100 -42.440200 -0.085400
				CHANNELS 3 Zrotation Yrotation Xrotation
				JOINT LeftToe
				{
					OFFSET 0.135400 -9.338000 13.882500
					CHANNELS 3 Zrotation Yrotation Xrotation
					End Site
					{
						OFFSET 0.005000 0.000000 0.000000
					}
				}
			}
		}
	}
	JOINT RightHip
	{
		OFFSET -6.356900 0.000000 0.000000
		CHANNELS 3 Zrotation Yrotation Xrotation
		JOINT RightKnee
		{
			OFFSET 0.000100 -37.930500 0.000000
			CHANNELS 3 Zrotation Yrotation Xrotation
			JOINT RightAnkle
			{
				OFFSET 0.000100 -42.440200 -0.085400
				CHANNELS 3 Zrotation Yrotation Xrotation
				JOINT RightToe
				{
					OFFSET -0.135400 -9.338000 13.882500
					CHANNELS 3 Zrotation Yrotation Xrotation
					End Site
					{
						OFFSET 0.005000 0.000000 0.000000
					}
				}
			}
		}
	}
}
MOTION
Frames: 4
Frame Time: 0.041667
2.938400 89.933100 2.519100 -0.964567 37.894689 16.780976 1.713539 -0.445790 -5.947227 -2.057523 -0.702244 -3.301553 0.863531 -17.668567 -8.587247 -7.160862 2.598034 16.207125 -7.221326 33.563504 -13.631715 0.000000 0.000000 0.000000 -19.369693 28.826085 -0.049068 -38.120689 -15.136808 -69.777317 -180.000000 -54.351601 180.000000 0.080479 -0.005239 -0.988820 0.000000 0.000000 0.607176 0.005215 0.000010 -0.110703 -0.012689 0.000454 -0.146434 0.022390 -0.001199 4.934506 0.000000 0.000000 0.746397 0.000014 0.006565 0.122572 -0.000022 -0.014325 0.164521 2.447046 -0.079831 2.056764 0.000000 0.000000 0.740482 -0.000002 0.007173 -0.014980 -0.000004 -0.015017 0.027776 4.260386 -0.094452 1.375350 0.000000 0.000000 0.754839 0.000000 0.009448 0.000229 -0.000006 -0.022452 0.026332 -6.917769 0.291382 2.291170 0.000000 0.000000 0.754038 -0.000001 0.004175 -0.008146 -0.000001 -0.009275 0.012467 0.441624 -0.014543 2.538997 20.240182 2.943817 -0.043778 33.762552 7.399879 -59.402622 -180.000000 38.668396 -180.000000 -0.080308 0.004629 -0.724563 0.000000 0.000000 0.472622 0.000000 0.000000 0.008252 0.000000 0.000000 -0.001366 -7.969741 -5.107087 -8.050663 0.000000 0.000000 0.467721 0.000000 0.000000 -0.015015 0.000000 0.000000 0.025121 6.271931 -1.933901 -4.817211 0.000000 0.000000 0.481966 0.000000 0.000000 -0.004083 0.000000 0.000000 -0.000628 -1.013052 -2.505694 -6.799366 0.000000 0.000000 0.479930 0.000000 0.000000 0.003389 0.000000 0.000000 -0.007978 -3.109834 -2.403556 -3.139792 0.000035 0.004242 0.480870 0.000001 -0.004242 0.042897 0.000000 0.000000 0.013196 -4.610124 -2.491975 -2.359596 -9.269571 49.980693 -21.570015 0.000000 0.000000 3.034251 -13.710205 -10.275946 1.192070 0.000000 0.000000 0.000000 7.326071 -32.982049 -26.756089 0.000000 0.000000 9.440355 6.740802 4.156769 -0.433861 0.000000 0.000000 -0.000003 
2.924000 89.413400 2.233000 1.481433 36.316745 18.024502 0.199526 -0.432603 -5.249676 -2.821559 -0.571825 -3.312894 0.476380 -17.488593 -8.828473 -7.453527 2.742997 16.589525 -7.338743 34.125645 -14.298793 0.000000 0.000000 0.000000 -19.394389 28.990648 -0.049077 -37.293686 -14.688528 -70.582672 -180.000000 -54.379402 180.000000 0.080479 -0.005239 -0.988820 0.000000 0.000000 0.607176 0.005215 0.000010 -0.110703 -0.012689 0.000454 -0.146434 0.022390 -0.001199 4.934506 0.000000 0.000000 0.746397 0.000014 0.006565 0.122572 -0.000022 -0.014325 0.164521 2.447046 -0.079831 2.056764 0.000000 0.000000 0.740482 -0.000002 0.007173 -0.014980 -0.000004 -0.015017 0.027776 4.260386 -0.094452 1.375350 0.000000 0.000000 0.754839 0.000000 0.009448 0.000229 -0.000006 -0.022452 0.026332 -6.917769 0.291382 2.291170 0.000000 0.000000 0.754038 -0.000001 0.004175 -0.008146 -0.000001 -0.009275 0.012467 0.441624 -0.014543 2.538997 20.578691 3.062324 -0.043562 33.918460 7.531736 -58.430270 -180.000000 38.787201 -180.000000 -0.080308 0.004629 -0.724563 0.000000 0.000000 0.472622 0.000000 0.000000 0.008252 0.000000 0.000000 -0.001366 -7.969741 -5.107087 -8.050663 0.000000 0.000000 0.467721 0.000000 0.000000 -0.015015 0.000000 0.000000 0.025121 6.271931 -1.933901 -4.817211 0.000000 0.000000 0.481966 0.000000 0.000000 -0.004083 0.000000 0.000000 -0.000628 -1.013052 -2.505694 -6.799366 0.000000 0.000000 0.479930 0.000000 0.000000 0.003389 0.000000 0.000000 -0.007978 -3.109834 -2.403556 -3.139792 0.000035 0.004242 0.480870 0.000001 -0.004242 0.042897 0.000000 0.000000 0.013196 -4.610124 -2.491975 -2.359596 -11.219123 51.215606 -23.964934 0.000000 0.000000 8.211064 -16.543927 -11.186434 -0.487781 0.000000 0.000000 0.000000 4.910005 -32.573801 -30.122600 0.000000 0.000000 15.766406 7.343748 4.696908 -2.943823 0.000000 0.000000 -0.000003 
3.071200 88.693900 1.893200 3.557611 34.758951 19.174314 -1.144279 -0.525014 -4.537695 -3.463170 -0.587296 -3.478985 0.296639 -17.071190 -9.219950 -8.070887 3.081419 17.144758 -7.221356 34.204783 -15.203333 0.000000 0.000000 0.000000 -19.420645 29.195567 -0.049137 -36.510812 -13.987253 -71.513991 -180.000000 -54.606201 180.000000 0.080479 -0.005239 -0.988820 0.000000 0.000000 0.607176 0.005215 0.000010 -0.110703 -0.012689 0.000454 -0.146434 0.022390 -0.001199 4.934506 0.000000 0.000000 0.746397 0.000014 0.006565 0.122572 -0.000022 -0.014325 0.164521 2.447046 -0.079831 2.056764 0.000000 0.000000 0.740482 -0.000002 0.007173 -0.014980 -0.000004 -0.015017 0.027776 4.260386 -0.094452 1.375350 0.000000 0.000000 0.754839 0.000000 0.009448 0.000229 -0.000006 -0.022452 0.026332 -6.917769 0.291382 2.291170 0.000000 0.000000 0.754038 -0.000001 0.004175 -0.008146 -0.000001 -0.009275 0.012467 0.441624 -0.014543 2.538997 20.864342 3.180516 -0.043329 33.992109 7.591254 -57.480455 -180.000000 38.790604 -180.000000 -0.080308 0.004629 -0.724563 0.000000 0.000000 0.472622 0.000000 0.000000 0.008252 0.000000 0.000000 -0.001366 -7.969741 -5.107087 -8.050663 0.000000 0.000000 0.467721 0.000000 0.000000 -0.015015 0.000000 0.000000 0.025121 6.271931 -1.933901 -4.817211 0.000000 0.000000 0.481966 0.000000 0.000000 -0.004083 0.000000 0.000000 -0.000628 -1.013052 -2.505694 -6.799366 0.000000 0.000000 0.479930 0.000000 0.000000 0.003389 0.000000 0.000000 -0.007978 -3.109834 -2.403556 -3.139792 0.000035 0.004242 0.480870 0.000001 -0.004242 0.042897 0.000000 0.000000 0.013196 -4.610124 -2.491975 -2.359596 -13.349163 52.424920 -27.303870 0.000000 0.000000 14.473605 -18.506949 -12.464051 -2.804245 0.000000 0.000000 0.000000 2.777366 -32.091436 -33.677404 0.000000 0.000000 21.979970 7.324748 5.231499 -5.417574 0.000000 0.000000 -0.000003 
3.206000 87.815800 1.542100 4.739263 33.224032 20.143215 -1.759511 -0.538156 -4.107017 -3.867092 -0.590436 -3.832094 0.024230 -16.745687 -9.580127 -8.726255 3.429501 17.726476 -7.380332 34.315151 -15.970282 0.000000 0.000000 0.000000 -19.442369 29.434959 -0.049247 -35.967736 -13.124226 -72.485868 -180.000000 -55.048103 180.000000 0.080479 -0.005239 -0.988820 0.000000 0.000000 0.607176 0.005215 0.000010 -0.110703 -0.012689 0.000454 -0.146434 0.022390 -0.001199 4.934506 0.000000 0.000000 0.746397 0.000014 0.006565 0.122572 -0.000022 -0.014325 0.164521 2.447046 -0.079831 2.056764 0.000000 0.000000 0.740482 -0.000002 0.007173 -0.014980 -0.000004 -0.015017 0.027776 4.260386 -0.094452 1.375350 0.000000 0.000000 0.754839 0.000000 0.009448 0.000229 -0.000006 -0.022452 0.026332 -6.917769 0.291382 2.291170 0.000000 0.000000 0.754038 -0.000001 0.004175 -0.008146 -0.000001 -0.009275 0.012467 0.441624 -0.014543 2.538997 21.093621 3.279623 -0.042976 34.010228 7.695408 -56.556441 -180.000000 38.673904 -180.000000 -0.080308 0.004629 -0.724563 0.000000 0.000000 0.472622 0.000000 0.000000 0.008252 0.000000 0.000000 -0.001366 -7.969741 -5.107087 -8.050663 0.000000 0.000000 0.467721 0.000000 0.000000 -0.015015 0.000000 0.000000 0.025121 6.271931 -1.933901 -4.817211 0.000000 0.000000 0.481966 0.000000 0.000000 -0.004083 0.000000 0.000000 -0.000628 -1.013052 -2.505694 -6.799366 0.000000 0.000000 0.479930 0.000000 0.000000 0.003389 0.000000 0.000000 -0.007978 -3.109834 -2.403556 -3.139792 0.000035 0.004242 0.480870 0.000001 -0.004242 0.042897 0.000000 0.000000 0.013196 -4.610124 -2.491975 -2.359596 -15.590469 53.700143 -31.670002 0.000000 0.000000 21.009028 -19.358288 -13.888770 -5.397438 0.000000 0.000000 0.000000 1.522547 -31.346483 -37.364588 0.000000 0.000000 27.546609 7.325265 5.734670 -7.572796 0.000000 0.000000 -0.000003 
